<svg id="Layer_1" data-name="Layer 1" xmlns="http://www.w3.org/2000/svg" viewBox="0 0 197.54 171"><defs><style>.cls-1{fill:none;}.cls-2{fill:#346852;}.cls-3{fill:#d59043;}.cls-4{fill:#d16a3d;}.cls-5{fill:#236c94;}.cls-6{fill:#ed946e;}.cls-7{fill:#354b78;}.cls-8{fill:#f3e076;}.cls-9{fill:#43ba8a;}.cls-10{fill:#1aa7dc;}.cls-11{fill:#fff;}.cls-12{font-size:19px;fill:#cf2e27;font-family:Rockwell-ExtraBold, Rockwell Extra Bold;}.cls-13{fill:#434857;}</style></defs><title>IDCloudHex_Transparent</title><polygon class="cls-1" points="21.88 47.63 21.75 47.85 22 47.85 21.88 47.63"/><polygon class="cls-2" points="135.51 42.23 138.76 47.85 175.8 47.85 154.42 10.84 135.51 42.23"/><polygon class="cls-3" points="160.5 85.5 143.36 115.18 180.4 115.18 197.54 85.5 178.42 52.39 157.14 79.67 160.5 85.5"/><polygon class="cls-4" points="133.6 132.08 152.25 163.92 180.4 115.18 143.36 115.18 133.6 132.08"/><polygon class="cls-5" points="21.88 47.63 22 47.85 58.79 47.85 61.67 42.86 43.02 11.02 21.88 47.63"/><polygon class="cls-6" points="133.6 132.08 129.64 138.94 110.92 138.94 85.92 171 148.16 171 152.25 163.92 133.6 132.08"/><polygon class="cls-7" points="61.67 42.86 67.91 32.06 129.64 32.06 135.51 42.23 154.42 10.84 148.16 0 49.38 0 43.02 11.02 61.67 42.86"/><polygon class="cls-8" points="157.14 79.67 178.42 52.39 175.8 47.85 138.76 47.85 157.14 79.67"/><polygon class="cls-8" points="58.77 47.87 58.79 47.85 22 47.85 21.75 47.85 21.73 47.87 58.77 47.87"/><polygon class="cls-8" points="110.92 138.94 67.91 138.94 66.9 137.2 35.37 144.88 34.81 145.77 49.38 171 85.92 171 110.92 138.94"/><polygon class="cls-9" points="54.19 115.2 35.37 144.88 66.9 137.2 54.19 115.2"/><polygon class="cls-10" points="54.19 115.2 37.04 85.5 58.77 47.87 21.73 47.87 0 85.5 34.81 145.77 35.37 144.88 54.19 115.2"/><polygon class="cls-11" points="37.04 85.5 54.19 115.2 66.9 137.2 67.91 138.94 110.92 138.94 129.64 138.94 133.6 132.08 143.36 115.18 160.5 85.5 157.14 79.67 138.76 47.85 135.51 42.23 129.64 32.06 67.91 32.06 61.67 42.86 58.79 47.85 58.77 47.87 37.04 85.5"/><text class="cls-12" transform="translate(57.81 90.92)">ID<tspan class="cls-13" x="25.33" y="0">Suite</tspan></text></svg>