<svg id="Layer_1" data-name="Layer 1" xmlns="http://www.w3.org/2000/svg" viewBox="0 0 524.32 73.9"><defs><style>.cls-1{fill:#fff;}</style></defs><title>Corporate Logo_White</title><path class="cls-1" d="M515.07,46.62a13.71,13.71,0,0,1,1.06,5.44,14.25,14.25,0,0,1-6.26,12c-4.16,3.08-9.68,4.63-16.52,4.63q-9.51,0-15.5-3.71A17.24,17.24,0,0,1,470,54.26l14.19-1.8a5.76,5.76,0,0,0,3.1,3.88,14.69,14.69,0,0,0,6.78,1.31,10.43,10.43,0,0,0,4.6-.85,2.58,2.58,0,0,0,1.69-2.3c0-1.36-1.81-2.29-5.44-2.75-1.83-.24-3.3-.44-4.42-.66a2.56,2.56,0,0,1-.39-.08c-6.06-1.1-10.37-2.67-12.9-4.71a13,13,0,0,1-3.71-4.61A13.14,13.14,0,0,1,472.21,36,14.06,14.06,0,0,1,478,24.26q5.74-4.43,15.31-4.42c5.32,0,9.78,1.06,13.35,3.19a17.47,17.47,0,0,1,7.67,9.28l-13.56,2.43a7.28,7.28,0,0,0-3.15-3.07,11.51,11.51,0,0,0-5.17-1,7.59,7.59,0,0,0-3.76.73,2.38,2.38,0,0,0-1.24,2.18c0,1.45,2.32,2.52,7,3.19,2.26.33,4.08.61,5.48.87a3.32,3.32,0,0,0,.55.09c5.59,1.08,9.44,2.57,11.59,4.52A12.85,12.85,0,0,1,515.07,46.62Z"/><path class="cls-1" d="M468.39,36.69V66.4H451.11V38.54a9.13,9.13,0,0,0-1-4.81,3.53,3.53,0,0,0-3.16-1.55,4.17,4.17,0,0,0-3.54,1.67,7.73,7.73,0,0,0-1.27,4.78V66.4h-17.2V21.21h15.95v6.43a13.13,13.13,0,0,1,5.15-5.7A15.33,15.33,0,0,1,453.81,20q7.64,0,11.11,3.94T468.39,36.69Z"/><path class="cls-1" d="M415.57,26.55q6.72,6.52,6.71,17.3c0,7.12-2.23,12.89-6.71,17.26s-10.38,6.56-17.7,6.56-13.18-2.19-17.69-6.58-6.75-10.14-6.75-17.24,2.25-12.91,6.74-17.29S390.55,20,397.87,20,411.09,22.19,415.57,26.55ZM403.89,43.86c0-4.29-.49-7.44-1.47-9.47a5,5,0,0,0-9.15,0q-1.45,3-1.45,9.51c0,4.34.48,7.5,1.45,9.5a5,5,0,0,0,9.15-.06C403.4,51.28,403.89,48.14,403.89,43.86Z"/><polygon class="cls-1" points="371.01 21.21 371.01 66.4 353.09 66.4 353.09 32.63 353.09 21.21 371.01 21.21"/><rect class="cls-1" x="353.09" y="5.47" width="17.92" height="12.17"/><path class="cls-1" d="M341.7,6.67V21.21h8.52V32.63H341.7v18a4.26,4.26,0,0,0,1,3.16,4.59,4.59,0,0,0,3.25.93,11.72,11.72,0,0,0,2.11-.22c.82-.13,1.72-.33,2.74-.56V66.4q-2.79.62-5.42,1a42.44,42.44,0,0,1-5.06.32c-5.37,0-9.36-1.18-12-3.57s-3.92-6-3.92-11V32.63h-6.86V21.21h7.55l1.16-13.73Z"/><path class="cls-1" d="M315.28,21.21V66.4H299.23V60a13.28,13.28,0,0,1-5.1,5.75,14.66,14.66,0,0,1-7.72,2q-7.67,0-11.12-4T271.83,51V21.21h17.29v27.9a9.08,9.08,0,0,0,1,4.76,3.47,3.47,0,0,0,3.14,1.56,4.09,4.09,0,0,0,3.51-1.67A7.92,7.92,0,0,0,298,49V21.21Z"/><rect class="cls-1" x="250.84" y="5.47" width="17.93" height="60.93"/><path class="cls-1" d="M241.74,26.55q6.7,6.52,6.71,17.3c0,7.12-2.24,12.89-6.71,17.26S231.36,67.67,224,67.67s-13.2-2.19-17.69-6.58-6.76-10.14-6.76-17.24,2.24-12.91,6.73-17.29S216.72,20,224,20,237.26,22.19,241.74,26.55ZM230.06,43.86c0-4.29-.49-7.44-1.47-9.47a5,5,0,0,0-9.16,0c-1,2-1.45,5.16-1.45,9.51s.49,7.5,1.45,9.5a5,5,0,0,0,9.16-.06C229.57,51.28,230.06,48.14,230.06,43.86Z"/><path class="cls-1" d="M171.87,4c5.94,0,11,1.3,15.08,3.91A22.79,22.79,0,0,1,196,19.3l-15.62,4.46a9.52,9.52,0,0,0-3.66-4.68,11.67,11.67,0,0,0-6.14-1.44,7.47,7.47,0,0,0-4.44,1.27A3.81,3.81,0,0,0,164.38,22q0,3,7.84,4.75c1.4.31,2.5.57,3.3.77.48.11,1.22.3,2.19.51q9.93,2.41,14.09,5.71a15.39,15.39,0,0,1,4.38,5.63,17.73,17.73,0,0,1,1.5,7.38,18,18,0,0,1-1.54,7.37,18.4,18.4,0,0,1-4.46,6.21,25.43,25.43,0,0,1-9,5.36,33.31,33.31,0,0,1-11.41,1.86c-7.62,0-13.91-1.63-18.84-4.85A22.1,22.1,0,0,1,142.92,49l0-.12,17-3.19a9.21,9.21,0,0,0,3.88,5.72,14.11,14.11,0,0,0,7.81,1.87,9.34,9.34,0,0,0,4.93-1.16,3.48,3.48,0,0,0,1.88-3q0-3.59-7.92-5.34c-1.86-.43-3.33-.78-4.45-1.08q-11-2.82-15.75-7.09a13.93,13.93,0,0,1-4.26-7.22,17.71,17.71,0,0,1-.46-4.15,17.64,17.64,0,0,1,7.2-14.62Q160,4,171.87,4Z"/><path class="cls-1" d="M143,48.91l0,.12,0-.11Z"/><path class="cls-1" d="M91.31,5.47h23.41a44.91,44.91,0,0,1,9.91,1,24.33,24.33,0,0,1,7.64,3A26.51,26.51,0,0,1,142,20.37a31.67,31.67,0,0,1,2.79,8.33,38.31,38.31,0,0,1,.66,7.22,34.17,34.17,0,0,1-2.48,13h-.08l0,.11c-.16.39-.33.78-.51,1.16A25.59,25.59,0,0,1,125.31,65a42.78,42.78,0,0,1-11.39,1.37H91.31ZM125.7,35.62q0-7.41-3-11.77a9.22,9.22,0,0,0-8-4.39H110V52.13h4.21a9.7,9.7,0,0,0,8.37-4.51C124.65,44.62,125.7,40.63,125.7,35.62Z"/><rect class="cls-1" x="69.52" y="5.44" width="18.37" height="60.96"/><rect class="cls-1" x="52.1" y="49.79" width="10.65" height="10.2"/><rect class="cls-1" x="52.1" y="34.49" width="10.65" height="10.2"/><rect class="cls-1" x="52.1" y="19.19" width="10.65" height="10.21"/><rect class="cls-1" x="52.1" y="6.99" width="10.65" height="6.98"/><rect class="cls-1" x="34.48" y="43.23" width="8.64" height="8.28"/><rect class="cls-1" x="34.48" y="30.8" width="8.64" height="8.29"/><rect class="cls-1" x="34.48" y="18.36" width="8.64" height="8.29"/><rect class="cls-1" x="34.48" y="8.39" width="8.64" height="5.68"/><rect class="cls-1" x="19.33" y="37.55" width="6.99" height="6.68"/><rect class="cls-1" x="19.33" y="27.52" width="6.99" height="6.7"/><rect class="cls-1" x="19.33" y="17.5" width="6.99" height="6.69"/><rect class="cls-1" x="19.33" y="9.44" width="6.99" height="4.58"/><rect class="cls-1" x="6.02" y="33.16" width="5.58" height="5.35"/><rect class="cls-1" x="6.02" y="25.13" width="5.58" height="5.35"/><rect class="cls-1" x="6.02" y="17.09" width="5.58" height="5.35"/><rect class="cls-1" x="6.02" y="10.51" width="5.58" height="3.67"/></svg>